<?xml version="1.0" encoding="utf-8"?>
<!-- Generator: Adobe Illustrator 14.0.0, SVG Export Plug-In . SVG Version: 6.00 Build 43363)  -->
<!DOCTYPE svg PUBLIC "-//W3C//DTD SVG 1.1//EN" "http://www.w3.org/Graphics/SVG/1.1/DTD/svg11.dtd">
<svg version="1.1" id="Capa_1" xmlns="http://www.w3.org/2000/svg" xmlns:xlink="http://www.w3.org/1999/xlink" x="0px" y="0px"
	 width="100px" height="100px" viewBox="0 0 100 100" enable-background="new 0 0 100 100" xml:space="preserve">
<g>
	<path fill="#FFFFFF" d="M62.924,94.729c-1.732-1.272-1.918-3.188-1.918-3.188l-0.65-4.155H39.642l-0.652,4.152
		c0,0-0.181,1.916-1.914,3.19c-1.732,1.272-3.099,2.366-1.732,2.554c1.317,0.178,13.74,0.016,14.656,0
		c0.918,0.016,13.338,0.178,14.654,0C66.02,97.098,64.652,96.006,62.924,94.729z"/>
	<g>
		<path fill="#FFFFFF" d="M26.666,61.538c5.534-0.043,6.223-1.377,8.027-6.933c3.327-8.77,18.309,2.295,9.024,6.136
			C34.432,64.583,21.132,61.581,26.666,61.538z"/>
		<path fill="#FFFFFF" d="M83.41,3.756c-2.688-2.164-7.135-1.098-9.938,2.38L45.082,46.472c-2.803,3.477-2.789,2.813-0.104,4.975
			c2.685,2.164,2.038,2.318,4.841-1.158l33.376-36.317C85.998,10.492,86.096,5.919,83.41,3.756z M76.109,8.584
			c0,0-0.416-0.483-1.799-1.589c2.072-3.387,6.148-2.766,6.148-2.766C76.596,6.511,76.109,8.584,76.109,8.584z"/>
	</g>
	<path fill="#FFFFFF" d="M96,17.386H83.516l-5.515,6h16v53h-88v-53h51.19l4.227-6H4c-2.209,0-4,1.791-4,9v58c0-2.791,1.791-1,4-1h92
		c2.209,0,4-1.791,4,1v-58C100,19.177,98.209,17.386,96,17.386z"/>
</g>
</svg>
