<?xml version="1.0" encoding="utf-8"?>
<!-- Generator: Adobe Illustrator 14.0.0, SVG Export Plug-In . SVG Version: 6.00 Build 43363)  -->
<!DOCTYPE svg PUBLIC "-//W3C//DTD SVG 1.1//EN" "http://www.w3.org/Graphics/SVG/1.1/DTD/svg11.dtd">
<svg version="1.1" id="Layer_1" xmlns="http://www.w3.org/2000/svg" xmlns:xlink="http://www.w3.org/1999/xlink" x="0px" y="0px"
	 width="521.057px" height="598.291px" viewBox="45.472 97.589 521.057 598.291"
	 enable-background="new 45.472 97.589 521.057 598.291" xml:space="preserve">
<g>
	<path fill="#FFFFFF" d="M564.325,521.031L421.239,412.524v-58.569c0-9.425-7.649-17.014-17.014-17.014h-21.787
		c-9.425,0-17.014,7.65-17.014,17.014v16.218l-25.152-19.095V147.65c0-20.502-11.017-39.719-28.703-50.062
		c-3.366-1.958-7.65-1.958-11.016,0c-17.687,10.343-28.703,29.56-28.703,50.062v203.429l-25.214,19.033v-16.218
		c0-9.425-7.65-17.014-17.014-17.014h-21.788c-9.425,0-17.013,7.65-17.013,17.014v58.63L47.675,521.031
		c-1.408,1.041-2.203,2.693-2.203,4.468v33.538c0,1.896,0.979,3.672,2.57,4.712c0.918,0.551,1.958,0.857,2.999,0.857
		c0.795,0,1.652-0.184,2.387-0.552l158.263-74.97l60.037-3.733v32.987c0,21.909,1.469,43.819,4.345,65.484l-79.009,61.566
		c-1.346,1.041-2.142,2.693-2.142,4.407v39.106c0,1.774,0.857,3.488,2.326,4.528c0.979,0.674,2.081,1.041,3.244,1.041
		c0.612,0,1.224-0.123,1.836-0.307l90.576-31.272l7.65,28.825c0.673,2.447,2.876,4.161,5.386,4.161s4.773-1.714,5.385-4.161
		l7.65-28.825l90.576,31.272c0.611,0.184,1.224,0.307,1.836,0.307c1.162,0,2.264-0.367,3.243-1.041
		c1.469-1.04,2.325-2.754,2.325-4.528v-39.106c0-1.714-0.795-3.366-2.142-4.407l-78.948-61.566
		c2.877-21.665,4.346-43.575,4.346-65.484v-32.987l60.099,3.733l158.263,74.97c0.734,0.367,1.592,0.552,2.387,0.552
		c1.041,0,2.081-0.307,2.999-0.857c1.591-1.04,2.57-2.815,2.57-4.712v-33.538C566.528,523.725,565.732,522.072,564.325,521.031z
		 M376.563,353.956c0-3.244,2.632-5.875,5.875-5.875h21.787c3.244,0,5.876,2.631,5.876,5.875v50.123l-33.538-25.398V353.956
		L376.563,353.956z M282.928,147.65c0-16.524,8.812-31.946,23.072-40.331c14.198,8.385,23.072,23.868,23.072,40.331v370.688
		c0,42.228-5.508,84.395-16.401,125.215l-1.102,4.039v-88.617c0-3.06-2.51-5.569-5.569-5.569c-3.06,0-5.569,2.51-5.569,5.569v88.617
		l-1.102-4.039c-10.894-40.82-16.401-82.987-16.401-125.215V147.65L282.928,147.65z M201.899,353.956
		c0-3.244,2.631-5.875,5.875-5.875h21.787c3.244,0,5.875,2.631,5.875,5.875v24.664l-33.538,25.398V353.956L201.899,353.956z
		 M209.977,478.008c-0.734,0.062-1.407,0.245-2.02,0.551L56.671,550.163v-21.91l215.118-163.159v109.058L209.977,478.008z
		 M206.122,681.069v-28.519l71.849-55.938c2.693,16.77,6.181,33.415,10.588,49.878l1.53,5.692L206.122,681.069z M405.878,652.489
		v28.52l-83.966-28.948l1.53-5.691c4.406-16.463,7.895-33.109,10.587-49.878L405.878,652.489z M555.329,550.163l-151.226-71.665
		c-0.612-0.307-1.347-0.49-2.02-0.551l-61.873-3.856V365.094l215.118,163.159V550.163z"/>
</g>
</svg>
