<?xml version="1.0" encoding="utf-8"?>
<!-- Generator: Adobe Illustrator 14.0.0, SVG Export Plug-In . SVG Version: 6.00 Build 43363)  -->
<!DOCTYPE svg PUBLIC "-//W3C//DTD SVG 1.1//EN" "http://www.w3.org/Graphics/SVG/1.1/DTD/svg11.dtd">
<svg version="1.1" id="Layer_1" xmlns="http://www.w3.org/2000/svg" xmlns:xlink="http://www.w3.org/1999/xlink" x="0px" y="0px"
	 width="441.426px" height="314.872px" viewBox="35.287 98.569 441.426 314.872"
	 enable-background="new 35.287 98.569 441.426 314.872" xml:space="preserve">
<path fill="#FFFFFF" d="M224.604,363.529H45.527l10.24,10.24V141.21l-10.24,10.24h203.387v-20.48H35.287v253.04h189.317V363.529z"/>
<path fill="#FFFFFF" d="M370.483,151.45h95.989l-10.239-10.24v232.56l10.239-10.24h-77.076v20.48h87.316V130.969H370.483V151.45z"/>
<path fill="#FFFFFF" d="M135.23,338.462V98.569H55.88v46.418h20.48v-36.178l-10.24,10.24h58.87l-10.24-10.24v229.653H135.23z"/>
<path fill="#FFFFFF" d="M229.202,210.329l41.554-88.32l-9.257,5.888h98.673l-9.481-6.338l36.402,88.31l18.935-7.803l-39.004-94.648
	H254.998l-2.765,5.878l-41.564,88.31L229.202,210.329z"/>
<path fill="#FFFFFF" d="M417.229,283.966c0,60.099-48.896,108.985-108.994,108.985c-60.1,0-109.005-48.875-109.005-108.985
	c0-60.078,48.896-108.974,109.005-108.974C368.333,175.002,417.229,223.888,417.229,283.966z M308.245,154.522
	c-71.404,0-129.485,58.071-129.485,129.455c0,71.394,58.082,129.464,129.485,129.464c71.394,0,129.475-58.071,129.475-129.464
	C437.71,212.593,379.629,154.522,308.245,154.522L308.245,154.522z"/>
<path fill="#FFFFFF" d="M381.113,288.409c0,40.646-32.95,73.595-73.596,73.595c-40.645,0-73.595-32.949-73.595-73.595
	c0-40.645,32.95-73.595,73.595-73.595C348.163,214.814,381.113,247.764,381.113,288.409z"/>
</svg>
