<?xml version="1.0" encoding="utf-8"?>
<!-- Generator: Adobe Illustrator 14.0.0, SVG Export Plug-In . SVG Version: 6.00 Build 43363)  -->
<!DOCTYPE svg PUBLIC "-//W3C//DTD SVG 1.1//EN" "http://www.w3.org/Graphics/SVG/1.1/DTD/svg11.dtd">
<svg version="1.1" id="Layer_1" xmlns="http://www.w3.org/2000/svg" xmlns:xlink="http://www.w3.org/1999/xlink" x="0px" y="0px"
	 width="612px" height="600.197px" viewBox="0 95.901 612 600.197" enable-background="new 0 95.901 612 600.197"
	 xml:space="preserve">
<g>
	<g transform="translate(0.000000,511.000000) scale(0.100000,-0.100000)">
		<path fill="#FFFFFF" d="M5365.957,4094.639c-26.865-32.925-104.961-126.929-174.541-211.143
			c-69.59-84.209-212.363-240.454-317.324-349.082c-112.305-113.525-200.186-214.814-211.143-240.454
			c-9.727-24.419-18.301-80.542-18.301-125.708v-80.537l-81.758-82.988c-75.771-74.482-1633.183-1573.33-1824.863-1755.215
			l-80.542-76.865l-58.564,43.94c-223.384,170.869-465.059,194.062-710.351,68.359c-118.423-61.016-224.604-194.067-263.647-332.007
			c-12.178-42.725-31.763-113.525-45.166-157.471c-24.419-89.111-84.214-157.471-157.466-181.826
			c-23.198-7.344-123.257-19.521-222.158-25.645c-98.838-7.344-225.83-20.742-280.723-31.699
			C506.86,478.145,198.042,197.422,89.414-200.498c-37.822-137.949-37.822-407.656,1.221-548.047
			c81.768-303.916,289.297-573.691,645.664-838.506c214.81-161.133,419.893-245.352,631.03-261.201
			c418.672-32.92,838.501,234.336,1008.208,640.83c53.677,130.596,102.51,332.012,139.17,576.074
			c17.075,117.197,39.048,223.379,48.838,239.229c24.419,36.602,64.688,56.123,189.17,89.111
			c268.545,70.811,460.166,211.133,501.66,368.604c18.291,68.359,7.344,112.305-39.053,158.691l-36.592,36.602l-107.412-8.574
			c-135.493-10.947-181.885,8.574-245.347,104.961c-35.376,54.902-50.063,67.139-82.988,69.59
			c-45.166,4.893-73.257-13.408-89.106-56.123c-24.419-63.467,75.703-203.857,186.724-259.98
			c31.699-15.85,86.655-29.316,143.999-34.15l91.553-8.564l-47.607-43.945c-65.913-63.457-189.17-124.482-324.668-162.363
			c-145.225-41.494-179.438-54.893-229.438-97.676c-68.359-57.344-96.45-130.596-124.482-324.668
			c-74.478-526.074-162.3-734.766-388.13-921.543c-294.126-244.131-673.75-261.201-1008.208-45.166
			c-234.336,150.127-482.134,388.125-584.644,561.445c-114.751,191.621-159.917,397.92-133.047,602.939
			c52.446,393.154,313.647,667.754,710.347,748.301c50.063,9.785,174.541,24.414,274.604,30.537
			c257.529,18.301,323.442,40.264,416.221,137.939c65.913,68.359,95.229,128.154,128.154,261.201
			c45.166,181.826,98.838,262.431,218.481,322.217c192.842,97.681,363.711,68.364,560.225-96.387
			c54.897-46.386,101.289-74.482,119.648-74.482c34.15,0-4.897-36.592,1191.255,1115.62
			c643.213,620.078,919.102,894.683,936.182,930.054c17.07,34.15,24.414,74.482,24.414,133.052v82.983l186.719,190.396
			c101.289,104.956,250.186,268.545,330.791,364.937c79.316,95.225,151.348,173.315,159.912,173.315
			c59.795,0,347.861-288.066,374.727-374.727c2.451-6.118-53.73-57.344-124.482-114.751
			c-151.348-120.806-396.689-356.426-494.307-474.79l-69.648-82.983l-112.295-4.897c-92.783-3.672-122.041-9.731-163.535-34.15
			c-53.73-32.925-164.746-146.45-1186.416-1214.453c-833.672-871.489-842.178-880.053-842.178-909.311
			c0-36.592,53.735-85.43,94.004-85.43c39.048,0-35.371-74.482,882.441,884.887C4803.222,2542.119,4960.683,2704.482,4990,2720.332
			c14.629,8.564,68.359,14.624,120.869,14.624c123.262-1.221,159.922,18.301,258.76,135.498
			c115.977,136.724,358.809,367.383,515.059,487.031c73.193,56.118,142.773,113.525,155.02,126.929
			c29.316,34.15,25.645,76.929-15.85,164.746c-86.66,184.336-324.668,417.446-490.703,480.913
			C5441.601,4164.224,5420.849,4159.326,5365.957,4094.639z"/>
	</g>
</g>
</svg>
