<?xml version="1.0" encoding="utf-8"?>
<!-- Generator: Adobe Illustrator 14.0.0, SVG Export Plug-In . SVG Version: 6.00 Build 43363)  -->
<!DOCTYPE svg PUBLIC "-//W3C//DTD SVG 1.1//EN" "http://www.w3.org/Graphics/SVG/1.1/DTD/svg11.dtd">
<svg version="1.1" id="Layer_1" xmlns="http://www.w3.org/2000/svg" xmlns:xlink="http://www.w3.org/1999/xlink" x="0px" y="0px"
	 width="612px" height="612px" viewBox="0 90 612 612" enable-background="new 0 90 612 612" xml:space="preserve">
<g>
	<path fill="#FFFFFF" d="M469.2,232.8c0,6.8-3.4,13.6-6.8,20.4C455.6,260,448.8,260,442,260s-13.6-3.4-20.4-6.8
		c-6.8-6.8-6.8-13.6-6.8-20.4c0-6.8,3.4-13.6,6.8-20.4c6.801-6.8,13.601-6.8,20.4-6.8s13.6,3.4,20.4,6.8
		C465.8,219.2,469.2,226,469.2,232.8 M486.2,232.8c0-13.6-3.4-23.8-13.601-34c-10.199-10.2-20.399-13.6-34-13.6
		c-13.6,0-23.8,3.4-34,13.6C394.4,209,391,219.2,391,232.8c0,13.6,3.4,23.8,13.6,34c10.2,10.2,20.4,13.6,34,13.6
		c13.601,0,23.801-3.4,34-13.6C482.8,256.6,486.2,246.4,486.2,232.8 M146.2,453.8l119-210.8l81.6,142.8l17,27.2l17-27.2l20.4-30.6
		l61.2,98.6H146.2z M268.6,205.6l-153,268.6h380.8l-95.2-153l-34,57.8L268.6,205.6z M26.4,549h558.2v125.6H26.4V549z M584.6,528.6
		H26.4V124.4h558.2V528.6z M37.4,90c-10.2,0-20.4,3.4-27.2,10.2C3.4,107,0,117.2,0,127.4v537.2c0,10.2,3.4,20.4,10.2,27.2
		c6.8,6.8,17,10.2,27.2,10.2h537.2c10.2,0,20.4-3.4,27.2-10.2s10.2-17,10.2-27.2V127.4c0-10.2-3.4-20.4-10.2-27.2
		c-6.8-6.8-17-10.2-27.2-10.2H37.4z"/>
</g>
</svg>
