<?xml version="1.0" encoding="utf-8"?>
<!-- Generator: Adobe Illustrator 14.0.0, SVG Export Plug-In . SVG Version: 6.00 Build 43363)  -->
<!DOCTYPE svg PUBLIC "-//W3C//DTD SVG 1.1//EN" "http://www.w3.org/Graphics/SVG/1.1/DTD/svg11.dtd">
<svg version="1.1" id="Chevron_circled_left" xmlns="http://www.w3.org/2000/svg" xmlns:xlink="http://www.w3.org/1999/xlink"
	 x="0px" y="0px" width="612px" height="792px" viewBox="0 0 612 792" enable-background="new 0 0 612 792" xml:space="preserve">
<path fill="#FFFFFF" d="M345.841,297.346c-5.997-6.028-15.759-6.028-21.726,0l-85.894,87.669c-5.998,6.089-5.998,15.912,0,21.94
	l85.894,87.638c5.967,6.09,15.729,6.06,21.726,0c5.998-6.027,5.998-15.851,0-21.939L275.4,396l70.441-76.684
	C351.839,313.258,351.839,303.466,345.841,297.346z M306,102.24C143.759,102.24,12.24,233.759,12.24,396
	c0,162.271,131.519,293.76,293.76,293.76S599.76,558.271,599.76,396C599.76,233.759,468.241,102.24,306,102.24z M306,651.633
	C164.781,651.633,50.368,537.188,50.368,396S164.781,140.368,306,140.368c141.158,0,255.633,114.444,255.633,255.632
	S447.158,651.633,306,651.633z"/>
</svg>
