<?xml version="1.0" encoding="utf-8"?>
<!-- Generator: Adobe Illustrator 14.0.0, SVG Export Plug-In . SVG Version: 6.00 Build 43363)  -->
<!DOCTYPE svg PUBLIC "-//W3C//DTD SVG 1.1//EN" "http://www.w3.org/Graphics/SVG/1.1/DTD/svg11.dtd">
<svg version="1.1" id="Menu" xmlns="http://www.w3.org/2000/svg" xmlns:xlink="http://www.w3.org/1999/xlink" x="0px" y="0px"
	 width="612px" height="418px" viewBox="0 0 612 418" enable-background="new 0 0 612 418" xml:space="preserve">
<path fill="#4A749E" d="M505.84,174.4H114.16c-16.891,0-18.36,13.678-18.36,30.6s1.469,30.6,18.36,30.6h391.68
	c16.895,0,18.36-13.678,18.36-30.6S522.731,174.4,505.84,174.4z M505.84,296.8H114.16c-16.891,0-18.36,13.679-18.36,30.603
	c0,16.923,1.469,30.601,18.36,30.601h391.68c16.895,0,18.36-13.678,18.36-30.601C524.2,310.479,522.731,296.8,505.84,296.8z
	 M114.16,113.2h391.68c16.895,0,18.36-13.679,18.36-30.601C524.2,65.677,522.731,52,505.84,52H114.16
	C97.269,52,95.8,65.678,95.8,82.6C95.8,99.522,97.269,113.2,114.16,113.2z"/>
</svg>
